# xmcd
#
# Track frame offsets:
#	150
#	19084
#	32019
#	47373
#	66796
#	82584
#	100365
#	119201
#	136819
#	148746
#	180869
#	192819
#	211624
#	229855
#	253619
#	279262
#	304931
#
# Disc length: 4333 seconds
#
# Revision: 1
# Processed by: cddbd v1.4PL0 Copyright (c) Steve Scherf et al.
# Submitted via: audiograbber 1.82.01
#
DISCID=de10eb11
DTITLE=Platinum Series - Volume 9
DYEAR=1900
DGENRE=
TTITLE0=Alabama - Mountain Music
TTITLE1=Alan Jackson - Don't Rock The Jukebox
TTITLE2=Brooks and Dunn - Boot Scootin' Boogie
TTITLE3=Garth Brooks - Friends In Low Places
TTITLE4=George Straight - I cross My Heart
TTITLE5=Hank Williams Jr - All My Rowdy Friends
TTITLE6=Jimmy Buffet - Margaritaville
TTITLE7=The Judds - Love Can Build A Bridge
TTITLE8=Oak Ridge Boys - Elvira
TTITLE9=Issaac Payton Sweat - Cotton Eyed Joe
TTITLE10=Ernest Tubbs - Waltz Across Texas
TTITLE11=2 Unlimited  - Twilight Zone 
TTITLE12=AB Logic  - The Hitman
TTITLE13=Black Box - Strike It Up
TTITLE14=C and C Music Factory - Here We Go
TTITLE15=Gino Latino  - Welsome
TTITLE16=Janet Jackson - Rhythm Nation
EXTD=
EXTT0=
EXTT1=
EXTT2=
EXTT3=
EXTT4=
EXTT5=
EXTT6=
EXTT7=
EXTT8=
EXTT9=
EXTT10=
EXTT11=
EXTT12=
EXTT13=
EXTT14=
EXTT15=
EXTT16=
PLAYORDER=
